<mxfile host="app.diagrams.net" agent="Mozilla/5.0 (Windows NT 10.0; Win64; x64) AppleWebKit/537.36 (KHTML, like Gecko) Chrome/127.0.0.0 Safari/537.36" version="24.7.7">
  <diagram name="Page-1" id="Kl1DCVsQELOMBmbkikH1">
    <mxGraphModel dx="954" dy="1761" grid="1" gridSize="10" guides="1" tooltips="1" connect="1" arrows="1" fold="1" page="1" pageScale="1" pageWidth="827" pageHeight="1169" math="0" shadow="0">
      <root>
        <mxCell id="0" />
        <mxCell id="1" parent="0" />
        <mxCell id="RX1LWHvZGWVAEhTTABGV-4" value="" style="edgeStyle=orthogonalEdgeStyle;rounded=0;orthogonalLoop=1;jettySize=auto;html=1;" parent="1" source="RX1LWHvZGWVAEhTTABGV-1" target="RX1LWHvZGWVAEhTTABGV-2" edge="1">
          <mxGeometry relative="1" as="geometry" />
        </mxCell>
        <mxCell id="RX1LWHvZGWVAEhTTABGV-1" value="Close Linux WSL Window" style="rounded=0;whiteSpace=wrap;html=1;" parent="1" vertex="1">
          <mxGeometry x="370" y="180" width="120" height="60" as="geometry" />
        </mxCell>
        <mxCell id="RX1LWHvZGWVAEhTTABGV-15" value="" style="edgeStyle=orthogonalEdgeStyle;rounded=0;orthogonalLoop=1;jettySize=auto;html=1;" parent="1" source="RX1LWHvZGWVAEhTTABGV-2" target="RX1LWHvZGWVAEhTTABGV-14" edge="1">
          <mxGeometry relative="1" as="geometry" />
        </mxCell>
        <mxCell id="RX1LWHvZGWVAEhTTABGV-2" value="Open wsl command terminal&amp;nbsp; in Administrator mode" style="rounded=0;whiteSpace=wrap;html=1;" parent="1" vertex="1">
          <mxGeometry x="370" y="280" width="120" height="60" as="geometry" />
        </mxCell>
        <mxCell id="RX1LWHvZGWVAEhTTABGV-7" value="" style="edgeStyle=orthogonalEdgeStyle;rounded=0;orthogonalLoop=1;jettySize=auto;html=1;" parent="1" source="RX1LWHvZGWVAEhTTABGV-6" target="RX1LWHvZGWVAEhTTABGV-1" edge="1">
          <mxGeometry relative="1" as="geometry" />
        </mxCell>
        <mxCell id="RX1LWHvZGWVAEhTTABGV-11" value="" style="edgeStyle=orthogonalEdgeStyle;rounded=0;orthogonalLoop=1;jettySize=auto;html=1;" parent="1" source="RX1LWHvZGWVAEhTTABGV-6" target="RX1LWHvZGWVAEhTTABGV-10" edge="1">
          <mxGeometry relative="1" as="geometry" />
        </mxCell>
        <mxCell id="RX1LWHvZGWVAEhTTABGV-6" value="Check disk&amp;nbsp;&lt;div&gt;partitioned&lt;/div&gt;" style="rhombus;whiteSpace=wrap;html=1;" parent="1" vertex="1">
          <mxGeometry x="390" y="40" width="80" height="80" as="geometry" />
        </mxCell>
        <mxCell id="RX1LWHvZGWVAEhTTABGV-8" value="Yes" style="text;html=1;align=center;verticalAlign=middle;whiteSpace=wrap;rounded=0;" parent="1" vertex="1">
          <mxGeometry x="320" y="40" width="60" height="30" as="geometry" />
        </mxCell>
        <mxCell id="RX1LWHvZGWVAEhTTABGV-9" value="No" style="text;html=1;align=center;verticalAlign=middle;whiteSpace=wrap;rounded=0;" parent="1" vertex="1">
          <mxGeometry x="370" y="130" width="60" height="30" as="geometry" />
        </mxCell>
        <mxCell id="RX1LWHvZGWVAEhTTABGV-10" value="End" style="rounded=1;whiteSpace=wrap;html=1;" parent="1" vertex="1">
          <mxGeometry x="170" y="50" width="120" height="60" as="geometry" />
        </mxCell>
        <mxCell id="RX1LWHvZGWVAEhTTABGV-12" value="" style="whiteSpace=wrap;html=1;aspect=fixed;" parent="1" vertex="1">
          <mxGeometry x="30" y="210" width="250" height="250" as="geometry" />
        </mxCell>
        <mxCell id="RX1LWHvZGWVAEhTTABGV-13" value="&lt;h1 style=&quot;margin-top: 0px;&quot;&gt;You need&lt;/h1&gt;&lt;p&gt;Path,&amp;nbsp;&lt;/p&gt;" style="text;html=1;whiteSpace=wrap;overflow=hidden;rounded=0;" parent="1" vertex="1">
          <mxGeometry x="50" y="220" width="180" height="120" as="geometry" />
        </mxCell>
        <mxCell id="RX1LWHvZGWVAEhTTABGV-17" value="" style="edgeStyle=orthogonalEdgeStyle;rounded=0;orthogonalLoop=1;jettySize=auto;html=1;" parent="1" source="RX1LWHvZGWVAEhTTABGV-14" target="RX1LWHvZGWVAEhTTABGV-16" edge="1">
          <mxGeometry relative="1" as="geometry" />
        </mxCell>
        <mxCell id="RX1LWHvZGWVAEhTTABGV-20" value="" style="edgeStyle=orthogonalEdgeStyle;rounded=0;orthogonalLoop=1;jettySize=auto;html=1;" parent="1" source="RX1LWHvZGWVAEhTTABGV-22" target="RX1LWHvZGWVAEhTTABGV-19" edge="1">
          <mxGeometry relative="1" as="geometry" />
        </mxCell>
        <mxCell id="RX1LWHvZGWVAEhTTABGV-14" value="Check mount&lt;div&gt;docs&lt;/div&gt;" style="rhombus;whiteSpace=wrap;html=1;" parent="1" vertex="1">
          <mxGeometry x="350" y="360" width="80" height="80" as="geometry" />
        </mxCell>
        <mxCell id="RX1LWHvZGWVAEhTTABGV-16" value="" style="rounded=0;whiteSpace=wrap;html=1;" parent="1" vertex="1">
          <mxGeometry x="550" y="370" width="120" height="60" as="geometry" />
        </mxCell>
        <mxCell id="RX1LWHvZGWVAEhTTABGV-18" value="Not Available" style="text;html=1;align=center;verticalAlign=middle;whiteSpace=wrap;rounded=0;" parent="1" vertex="1">
          <mxGeometry x="460" y="370" width="60" height="30" as="geometry" />
        </mxCell>
        <mxCell id="RX1LWHvZGWVAEhTTABGV-34" value="" style="edgeStyle=orthogonalEdgeStyle;rounded=0;orthogonalLoop=1;jettySize=auto;html=1;" parent="1" source="RX1LWHvZGWVAEhTTABGV-19" target="RX1LWHvZGWVAEhTTABGV-33" edge="1">
          <mxGeometry relative="1" as="geometry" />
        </mxCell>
        <mxCell id="RX1LWHvZGWVAEhTTABGV-19" value="mount -t type volume mountpoint&lt;div&gt;&lt;br&gt;&lt;/div&gt;&lt;div&gt;&amp;lt;Mount a file system on c&amp;gt;&lt;/div&gt;&lt;div&gt;&lt;br&gt;&lt;/div&gt;" style="rounded=0;whiteSpace=wrap;html=1;" parent="1" vertex="1">
          <mxGeometry x="370" y="530" width="120" height="90" as="geometry" />
        </mxCell>
        <mxCell id="RX1LWHvZGWVAEhTTABGV-21" value="" style="edgeStyle=orthogonalEdgeStyle;rounded=0;orthogonalLoop=1;jettySize=auto;html=1;" parent="1" source="RX1LWHvZGWVAEhTTABGV-14" target="RX1LWHvZGWVAEhTTABGV-22" edge="1">
          <mxGeometry relative="1" as="geometry">
            <mxPoint x="430" y="450" as="sourcePoint" />
            <mxPoint x="430" y="500" as="targetPoint" />
          </mxGeometry>
        </mxCell>
        <mxCell id="RX1LWHvZGWVAEhTTABGV-22" value="Available" style="text;html=1;align=center;verticalAlign=middle;whiteSpace=wrap;rounded=0;" parent="1" vertex="1">
          <mxGeometry x="360" y="450" width="60" height="30" as="geometry" />
        </mxCell>
        <mxCell id="RX1LWHvZGWVAEhTTABGV-27" value="" style="edgeStyle=orthogonalEdgeStyle;rounded=0;orthogonalLoop=1;jettySize=auto;html=1;" parent="1" source="RX1LWHvZGWVAEhTTABGV-25" target="RX1LWHvZGWVAEhTTABGV-6" edge="1">
          <mxGeometry relative="1" as="geometry" />
        </mxCell>
        <mxCell id="RX1LWHvZGWVAEhTTABGV-31" value="" style="edgeStyle=orthogonalEdgeStyle;rounded=0;orthogonalLoop=1;jettySize=auto;html=1;" parent="1" source="RX1LWHvZGWVAEhTTABGV-25" target="RX1LWHvZGWVAEhTTABGV-30" edge="1">
          <mxGeometry relative="1" as="geometry" />
        </mxCell>
        <mxCell id="RX1LWHvZGWVAEhTTABGV-25" value="Check&lt;div&gt;Windows Build&lt;/div&gt;&lt;div&gt;2200&lt;/div&gt;" style="rhombus;whiteSpace=wrap;html=1;" parent="1" vertex="1">
          <mxGeometry x="370" y="-310" width="120" height="120" as="geometry" />
        </mxCell>
        <mxCell id="RX1LWHvZGWVAEhTTABGV-28" value="Yes" style="text;html=1;align=center;verticalAlign=middle;whiteSpace=wrap;rounded=0;" parent="1" vertex="1">
          <mxGeometry x="430" width="60" height="30" as="geometry" />
        </mxCell>
        <mxCell id="RX1LWHvZGWVAEhTTABGV-29" value="No" style="text;html=1;align=center;verticalAlign=middle;whiteSpace=wrap;rounded=0;" parent="1" vertex="1">
          <mxGeometry x="500" y="-110" width="60" height="30" as="geometry" />
        </mxCell>
        <mxCell id="RX1LWHvZGWVAEhTTABGV-30" value="End" style="rounded=0;whiteSpace=wrap;html=1;" parent="1" vertex="1">
          <mxGeometry x="570" y="-85" width="60" height="30" as="geometry" />
        </mxCell>
        <mxCell id="RX1LWHvZGWVAEhTTABGV-36" value="" style="edgeStyle=orthogonalEdgeStyle;rounded=0;orthogonalLoop=1;jettySize=auto;html=1;" parent="1" source="RX1LWHvZGWVAEhTTABGV-33" target="RX1LWHvZGWVAEhTTABGV-35" edge="1">
          <mxGeometry relative="1" as="geometry" />
        </mxCell>
        <mxCell id="RX1LWHvZGWVAEhTTABGV-33" value="Check&amp;nbsp;&lt;div&gt;file system.(wsl&lt;/div&gt;&lt;div&gt;its drvfs)&lt;/div&gt;&lt;div&gt;and know&lt;/div&gt;&lt;div&gt;volume&amp;nbsp;&lt;/div&gt;&lt;div&gt;letter&lt;/div&gt;" style="rhombus;whiteSpace=wrap;html=1;" parent="1" vertex="1">
          <mxGeometry x="367.5" y="660" width="125" height="110" as="geometry" />
        </mxCell>
        <mxCell id="RX1LWHvZGWVAEhTTABGV-35" value="Direct proceed" style="rounded=0;whiteSpace=wrap;html=1;" parent="1" vertex="1">
          <mxGeometry x="520" y="685" width="120" height="60" as="geometry" />
        </mxCell>
        <mxCell id="RX1LWHvZGWVAEhTTABGV-37" value="Yes" style="text;html=1;align=center;verticalAlign=middle;whiteSpace=wrap;rounded=0;" parent="1" vertex="1">
          <mxGeometry x="470" y="685" width="60" height="30" as="geometry" />
        </mxCell>
        <mxCell id="RX1LWHvZGWVAEhTTABGV-38" value="" style="rounded=1;whiteSpace=wrap;html=1;" parent="1" vertex="1">
          <mxGeometry x="180" y="685" width="120" height="60" as="geometry" />
        </mxCell>
      </root>
    </mxGraphModel>
  </diagram>
</mxfile>
